<?xml version="1.0" standalone="no"?>
<!DOCTYPE svg PUBLIC "-//W3C//DTD SVG 20010904//EN"
 "http://www.w3.org/TR/2001/REC-SVG-20010904/DTD/svg10.dtd">
<svg version="1.0" xmlns="http://www.w3.org/2000/svg"
 width="300.000000pt" height="300.000000pt" viewBox="0 0 300.000000 300.000000"
 preserveAspectRatio="xMidYMid meet">
<metadata>
Created by potrace 1.11, written by Peter Selinger 2001-2013
</metadata>
<g transform="translate(0.000000,300.000000) scale(0.100000,-0.100000)"
fill="#000000" stroke="none">
<path d="M1452 2969 c-40 -4 -85 -10 -100 -14 -15 -4 -38 -9 -52 -12 -14 -2
-45 -13 -69 -24 -24 -10 -47 -19 -51 -19 -8 0 -143 -75 -164 -90 -101 -77
-774 -753 -826 -831 -213 -312 -217 -699 -11 -1014 57 -86 677 -711 766 -772
170 -115 318 -162 515 -164 199 -2 385 60 545 181 83 63 724 703 786 785 92
122 152 268 174 419 7 54 8 207 0 246 -35 181 -60 245 -149 379 -59 90 -680
715 -766 772 -74 49 -162 93 -236 118 -77 26 -104 31 -189 37 -38 3 -77 6 -85
7 -8 2 -48 0 -88 -4z"/>
</g>
</svg>
